<?xml version="1.0" encoding="utf-8"?>
<!-- Generator: Adobe Illustrator 23.0.2, SVG Export Plug-In . SVG Version: 6.00 Build 0)  -->
<svg version="1.1" id="Layer_1" xmlns="http://www.w3.org/2000/svg" xmlns:xlink="http://www.w3.org/1999/xlink" x="0px" y="0px"
	 viewBox="0 0 800 600" style="enable-background:new 0 0 800 600;" xml:space="preserve">
<g>
	<g id="XMLID_1_">
		<g>
			<path d="M576.1,373.97h-10.22h-5.3c-0.48-2.57-1.23-4.39-2.25-5.41c-1.66-1.66-4.49-2.52-8.4-2.52c-3.85,0-6.53,0.64-8.02,1.93
				c-1.13,0.96-1.72,2.3-1.72,3.96c0,2.35,3.27,4.23,9.74,5.67c7.39,1.6,12.69,3,15.95,4.12c0.86,0.32,1.61,0.59,2.14,0.86
				c6.59,3.11,9.85,7.82,9.85,14.13c0,7.71-3.21,13.33-9.58,16.86c-0.8,0.43-1.55,0.8-2.41,1.18c-4.12,1.77-8.94,2.67-14.34,2.67
				c-8.08,0-14.62-1.45-19.59-4.28c-3.13-1.82-5.47-4.11-7.03-6.87c-1.56-2.76-2.34-5.98-2.34-9.67h16.27c0,2.78,1.02,4.98,3,6.48
				c1.98,1.55,5.36,2.36,10.12,2.36c3.59,0,6.26-0.75,8.03-2.25c1.39-1.18,2.03-2.47,2.03-3.96c0-2.52-3.21-4.49-9.58-5.89
				c-9.53-2.04-15.52-3.7-17.98-4.88c-6.53-3.05-9.74-7.76-9.74-14.29c0-5.24,1.66-9.68,5.08-13.32c4.28-4.55,10.7-6.8,19.22-6.8
				c7.01,0,12.63,1.02,16.86,3c0.37,0.16,0.7,0.32,1.02,0.54c3.05,1.65,5.35,3.85,6.89,6.59
				C575.33,366.91,576.1,370.18,576.1,373.97z"/>
			<path d="M567.8,336.08c0-0.32-0.05-0.59-0.21-0.8c-0.16-0.27-0.38-0.43-0.69-0.53c-0.21-0.06-0.54-0.11-1.02-0.17h-0.59h-1.87v3
				h1.98c0.16,0,0.37,0,0.48,0c0.7-0.05,1.18-0.16,1.45-0.43C567.64,336.88,567.8,336.5,567.8,336.08z M569.09,334.47
				c0.32,0.43,0.48,0.91,0.48,1.45c0,0.75-0.27,1.39-0.8,1.93c-0.53,0.54-1.23,0.86-2.08,0.91c0.37,0.16,0.64,0.32,0.86,0.53
				l1.5,1.98l1.18,1.98h-1.93l-0.91-1.6c-0.58-1.01-1.06-1.77-1.5-2.14c-0.05-0.05-0.11-0.11-0.21-0.16l-1.28-0.37h-0.96v4.28h-1.61
				v-10.06h3.48c0.22,0,0.43,0.05,0.59,0.05c0.86,0,1.5,0.11,1.93,0.27C568.34,333.67,568.77,333.98,569.09,334.47z"/>
			<path d="M573.64,338.11c0-1.39-0.32-2.68-1.02-3.91c-0.7-1.23-1.66-2.19-2.89-2.89c-1.23-0.64-2.52-1.02-3.8-1.02
				c-0.05,0-0.05,0-0.05,0c-1.29,0-2.57,0.38-3.79,1.02c-1.24,0.7-2.2,1.66-2.9,2.89c-0.69,1.23-1.07,2.52-1.07,3.91
				c0,1.34,0.38,2.62,1.07,3.85c0.65,1.17,1.61,2.14,2.84,2.83c1.23,0.7,2.52,1.02,3.85,1.02c0,0,0,0,0.05,0
				c1.34,0,2.63-0.32,3.86-1.02c1.23-0.69,2.19-1.66,2.83-2.83C573.32,340.73,573.64,339.45,573.64,338.11z M575.19,338.11
				c0,1.55-0.38,3.11-1.24,4.6c-0.8,1.5-1.93,2.63-3.42,3.42c-1.5,0.86-3,1.24-4.61,1.24c-0.05,0-0.05,0-0.05,0
				c-1.6,0-3.1-0.37-4.6-1.24c-1.5-0.8-2.63-1.93-3.43-3.42c-0.86-1.5-1.23-3.05-1.23-4.6c0-1.66,0.37-3.21,1.23-4.71
				c0.86-1.5,1.98-2.62,3.48-3.42c1.5-0.8,3-1.18,4.55-1.23c0,0,0,0,0.05,0c1.55,0,3.06,0.43,4.55,1.23
				c1.5,0.81,2.68,1.93,3.48,3.42C574.81,334.9,575.19,336.45,575.19,338.11z"/>
			<polygon points="484.14,262.48 528.09,335.7 484.14,335.7 457.49,335.7 415.52,265.74 383.73,212.81 415.52,193.7 435.54,181.65 
							"/>
			<path d="M516.04,386.55v30.03h-14.62v-3.32c-4.93,3.21-10.81,5.09-17.13,5.09c-0.06,0-0.11,0-0.16,0
				c-17.45-0.11-31.63-14.35-31.63-31.8c0-17.45,14.19-31.68,31.63-31.79c0.06,0,0.11,0,0.16,0c6.31,0,12.2,1.88,17.13,5.08v-3.48
				h14.62V386.55z M501.43,389.87v-6.64c-1.55-8.03-8.67-14.13-17.13-14.13c-0.06,0-0.11,0-0.16,0
				c-9.58,0.06-17.34,7.87-17.34,17.45c0,9.58,7.76,17.4,17.34,17.51c0.06,0,0.11,0,0.16,0
				C492.76,404.05,499.88,397.9,501.43,389.87z"/>
			<path d="M447.42,386.55v30.03h-14.61v-3.32c-4.98,3.21-10.81,5.09-17.13,5.09c-0.05,0-0.11,0-0.16,0
				c-17.45-0.11-31.63-14.35-31.63-31.8c0-17.45,14.18-31.68,31.63-31.79c0.05,0,0.11,0,0.16,0c6.32,0,12.15,1.88,17.13,5.08V335.7
				h14.61V386.55z M432.81,389.87v-6.64c-1.55-8.03-8.68-14.13-17.13-14.13c-0.05,0-0.11,0-0.16,0
				c-9.58,0.06-17.34,7.87-17.34,17.45c0,9.58,7.76,17.4,17.34,17.51c0.05,0,0.11,0,0.16,0
				C424.14,404.05,431.26,397.9,432.81,389.87z"/>
			<polygon points="415.52,306.9 432.76,335.7 415.52,335.7 362.21,335.7 323.03,270.51 321.32,267.67 323.03,266.65 373.18,236.46 
							"/>
			<rect x="362.26" y="354.75" width="15.9" height="61.82"/>
			<rect x="362.26" y="336.02" width="15.9" height="13.97"/>
			<path d="M354.98,386.55v30.03h-14.61v-3.32c-4.98,3.21-10.86,5.09-17.18,5.09c-0.05,0-0.11,0-0.16,0
				c-17.45-0.11-31.63-14.35-31.63-31.8c0-17.45,14.19-31.68,31.63-31.79c0.05,0,0.11,0,0.16,0c6.32,0,12.21,1.88,17.18,5.08V335.7
				h14.61V386.55z M340.37,389.87v-6.64c-1.55-8.03-8.67-14.13-17.18-14.13c-0.05,0-0.11,0-0.16,0
				c-9.58,0.06-17.34,7.87-17.34,17.45c0,9.58,7.76,17.4,17.34,17.51c0.05,0,0.11,0,0.16,0C331.7,404.05,338.82,397.9,340.37,389.87
				z"/>
			<polygon points="323.03,311.61 337.48,335.7 323.03,335.7 266.88,335.7 258.96,322.48 310.82,291.33 			"/>
			<path d="M285.67,386.55v30.03h-14.61v-3.32c-4.98,3.21-10.87,5.09-17.18,5.09c-0.06,0-0.11,0-0.16,0
				c-17.39-0.11-31.58-14.35-31.58-31.8c0-17.45,14.18-31.68,31.58-31.79c0.06,0,0.11,0,0.16,0c6.31,0,12.2,1.88,17.18,5.08v-3.48
				h14.61V386.55z M271.06,389.87v-6.64c-1.55-8.03-8.67-14.13-17.18-14.13c-0.06,0-0.11,0-0.16,0
				c-9.53,0.06-17.28,7.87-17.28,17.45c0,9.58,7.76,17.4,17.28,17.51c0.06,0,0.11,0,0.16,0C262.39,404.05,269.5,397.9,271.06,389.87
				z"/>
		</g>
	</g>
</g>
</svg>
